<svg width="300" height="200" viewBox="0 0 300 200" xmlns="http://www.w3.org/2000/svg">
  <defs>
    <filter id="sketch3" x="-20%" y="-20%" width="140%" height="140%">
      <feTurbulence type="fractalNoise" baseFrequency="0.02" numOctaves="3" result="noise"/>
      <feDisplacementMap in="SourceGraphic" in2="noise" scale="2"/>
    </filter>
  </defs>
  
  <!-- Background -->
  <rect x="20" y="40" width="260" height="140" fill="none" stroke="#1b243f" stroke-width="2" stroke-dasharray="5,5" opacity="0.3"/>
  
  <!-- Main Cold Chamber Body -->
  <rect x="40" y="60" width="220" height="100" fill="none" stroke="#1b243f" stroke-width="3" filter="url(#sketch3)"/>
  
  <!-- Door -->
  <rect x="125" y="80" width="50" height="80" fill="none" stroke="#1b243f" stroke-width="2" stroke-dasharray="3,3"/>
  <circle cx="165" cy="120" r="3" fill="#1b243f"/>
  
  <!-- Temperature Display -->
  <rect x="55" y="75" width="50" height="25" fill="none" stroke="#1b243f" stroke-width="2"/>
  <text x="80" y="92" text-anchor="middle" fill="#1b243f" font-family="monospace" font-size="12" font-weight="bold">-20°C</text>
  
  <!-- Frost/Ice Indicators -->
  <path d="M 200 80 Q 210 75 220 80 Q 230 85 240 80" fill="none" stroke="#1b243f" stroke-width="2"/>
  <path d="M 200 90 Q 210 85 220 90 Q 230 95 240 90" fill="none" stroke="#1b243f" stroke-width="2"/>
  <path d="M 200 100 Q 210 95 220 100 Q 230 105 240 100" fill="none" stroke="#1b243f" stroke-width="2"/>
  
  <!-- Control Panel -->
  <rect x="55" y="110" width="40" height="30" fill="none" stroke="#1b243f" stroke-width="2"/>
  <circle cx="65" cy="120" r="2" fill="#1b243f"/>
  <circle cx="75" cy="120" r="2" fill="#1b243f"/>
  <circle cx="85" cy="120" r="2" fill="#1b243f"/>
  <circle cx="65" cy="130" r="2" fill="#1b243f"/>
  <circle cx="75" cy="130" r="2" fill="#1b243f"/>
  <circle cx="85" cy="130" r="2" fill="#1b243f"/>
  
  <!-- Cooling System -->
  <rect x="200" y="110" width="40" height="30" fill="none" stroke="#1b243f" stroke-width="2"/>
  <path d="M 210 115 L 230 115 M 210 120 L 230 120 M 210 125 L 230 125" stroke="#1b243f" stroke-width="1"/>
  
  <!-- Shelves -->
  <line x1="50" y1="130" x2="250" y2="130" stroke="#1b243f" stroke-width="2"/>
  <line x1="50" y1="145" x2="250" y2="145" stroke="#1b243f" stroke-width="2"/>
  
  <!-- Product Label -->
  <text x="150" y="180" text-anchor="middle" fill="#1b243f" font-family="Arial" font-size="14" font-weight="bold">Cold Chamber</text>
</svg>


