<svg width="300" height="200" viewBox="0 0 300 200" xmlns="http://www.w3.org/2000/svg">
  <defs>
    <filter id="sketch4" x="-20%" y="-20%" width="140%" height="140%">
      <feTurbulence type="fractalNoise" baseFrequency="0.018" numOctaves="3" result="noise"/>
      <feDisplacementMap in="SourceGraphic" in2="noise" scale="1.8"/>
    </filter>
  </defs>
  
  <!-- Background -->
  <rect x="20" y="40" width="260" height="140" fill="none" stroke="#2298d2" stroke-width="2" stroke-dasharray="5,5" opacity="0.3"/>
  
  <!-- Main BOD Chamber -->
  <rect x="80" y="60" width="140" height="100" fill="none" stroke="#2298d2" stroke-width="3" filter="url(#sketch4)"/>
  
  <!-- Door -->
  <rect x="100" y="80" width="40" height="80" fill="none" stroke="#2298d2" stroke-width="2" stroke-dasharray="3,3"/>
  <circle cx="130" cy="120" r="3" fill="#2298d2"/>
  
  <!-- Digital Display -->
  <rect x="90" y="70" width="50" height="20" fill="none" stroke="#2298d2" stroke-width="2"/>
  <text x="115" y="83" text-anchor="middle" fill="#2298d2" font-family="monospace" font-size="12" font-weight="bold">20°C</text>
  
  <!-- Control Panel -->
  <rect x="180" y="70" width="30" height="40" fill="none" stroke="#2298d2" stroke-width="2"/>
  <circle cx="195" cy="80" r="3" fill="none" stroke="#2298d2" stroke-width="1"/>
  <circle cx="195" cy="90" r="3" fill="none" stroke="#2298d2" stroke-width="1"/>
  <circle cx="195" cy="100" r="3" fill="none" stroke="#2298d2" stroke-width="1"/>
  
  <!-- Temperature Graph -->
  <path d="M 90 120 L 110 115 L 130 118 L 150 113 L 170 116 L 190 114" fill="none" stroke="#2298d2" stroke-width="2"/>
  <circle cx="110" cy="115" r="2" fill="#2298d2"/>
  <circle cx="130" cy="118" r="2" fill="#2298d2"/>
  <circle cx="150" cy="113" r="2" fill="#2298d2"/>
  <circle cx="170" cy="116" r="2" fill="#2298d2"/>
  <circle cx="190" cy="114" r="2" fill="#2298d2"/>
  
  <!-- Shelves -->
  <line x1="90" y1="130" x2="210" y2="130" stroke="#2298d2" stroke-width="2"/>
  <line x1="90" y1="145" x2="210" y2="145" stroke="#2298d2" stroke-width="2"/>
  
  <!-- Air Circulation -->
  <circle cx="100" cy="140" r="6" fill="none" stroke="#2298d2" stroke-width="1"/>
  <path d="M 100 134 L 100 146 M 94 140 L 106 140" stroke="#2298d2" stroke-width="1"/>
  
  <!-- Product Label -->
  <text x="150" y="180" text-anchor="middle" fill="#2298d2" font-family="Arial" font-size="14" font-weight="bold">BOD Chamber</text>
</svg>


